<?xml version="1.0" encoding="utf-8"?>
<!-- Generator: Adobe Illustrator 16.0.0, SVG Export Plug-In . SVG Version: 6.00 Build 0)  -->
<!DOCTYPE svg PUBLIC "-//W3C//DTD SVG 1.1//EN" "http://www.w3.org/Graphics/SVG/1.1/DTD/svg11.dtd">
<svg version="1.1" id="Default" xmlns="http://www.w3.org/2000/svg" xmlns:xlink="http://www.w3.org/1999/xlink" x="0px" y="0px"
	 width="100px" height="100px" viewBox="0 0 100 100" enable-background="new 0 0 100 100" xml:space="preserve">
<path fill="none" stroke="#FFFFFF" stroke-width="5" stroke-linecap="round" stroke-linejoin="round" d="M71.576,18.661
	c-7.192,0-14.385,0-21.576,0c0,7.192,0,14.383,0,21.575c0,7.192,0,14.383,0,21.575s0,14.383,0,21.575c7.191,0,14.384,0,21.576,0
	c11.915,0,21.574-9.66,21.574-21.575c0-7.192,0-14.383,0-21.575C93.15,28.32,83.491,18.661,71.576,18.661z"/>
<path fill="none" stroke="#FFFFFF" stroke-width="5" stroke-linecap="round" stroke-linejoin="round" d="M50,61.811
	c0-7.192,0-14.383,0-21.575c0-11.916-9.66-21.575-21.575-21.575c-4.622,0-9.244,0-13.866,0c-2.312,0-4.623,0-6.934,0
	c-0.152,0-0.303,0-0.454,0c-0.076,0-0.152,0-0.228,0c-0.033,0-0.094-0.044-0.094,0.018c0,0.034,0,0.068,0,0.102
	c0.002,0.276,0.008,0.552,0.021,0.827c0.025,0.563,0.071,1.125,0.14,1.685c0.144,1.171,0.38,2.31,0.711,3.441
	c2.695,9.19,11.126,15.503,20.703,15.503c-4.622,0-9.244,0-13.866,0c-2.312,0-4.623,0-6.934,0c-0.152,0-0.303,0-0.454,0
	c-0.076,0-0.152,0-0.228,0c-0.033,0-0.094-0.044-0.094,0.018c0,0.034,0,0.068,0,0.103c0.002,0.275,0.008,0.55,0.021,0.826
	c0.025,0.563,0.071,1.124,0.14,1.684c0.144,1.17,0.38,2.31,0.711,3.441c2.695,9.19,11.126,15.503,20.703,15.503
	c-4.622,0-9.244,0-13.866,0c-2.312,0-4.623,0-6.934,0c-0.152,0-0.303,0-0.454,0c-0.076,0-0.152,0-0.228,0
	c-0.033,0-0.094-0.044-0.094,0.018c0,0.034,0,0.068,0,0.103c0.002,0.275,0.008,0.55,0.021,0.826c0.025,0.563,0.071,1.124,0.14,1.684
	c0.144,1.171,0.38,2.31,0.711,3.441c2.695,9.19,11.126,15.503,20.703,15.503C40.34,83.386,50,73.727,50,61.811z"/>
</svg>
