<?xml version="1.0" encoding="utf-8"?>
<!-- Generator: Adobe Illustrator 16.0.0, SVG Export Plug-In . SVG Version: 6.00 Build 0)  -->
<!DOCTYPE svg PUBLIC "-//W3C//DTD SVG 1.1//EN" "http://www.w3.org/Graphics/SVG/1.1/DTD/svg11.dtd">
<svg version="1.1" xmlns="http://www.w3.org/2000/svg" xmlns:xlink="http://www.w3.org/1999/xlink" x="0px" y="0px" width="100px"
	 height="100px" viewBox="0 0 100 100" enable-background="new 0 0 100 100" xml:space="preserve">
<g id="Layer_2" display="none">
</g>
<g id="Default">
	<rect display="none" width="100" height="100"/>
	<path fill="none" stroke="#FFFFFF" stroke-width="5" stroke-linecap="round" stroke-linejoin="round" d="M72.856,21.381
		c-6.557,0-13.113,0-19.67,0c0,6.556,0,13.112,0,19.668c0,6.557,0,13.112,0,19.668c0,6.558,0,13.112,0,19.669
		c6.557,0,13.113,0,19.67,0c10.862,0,19.668-8.806,19.668-19.669c0-6.556,0-13.111,0-19.668
		C92.524,30.186,83.719,21.381,72.856,21.381z"/>
	<path fill="none" stroke="#FFFFFF" stroke-width="5" d="M46.187,60.717c0-6.556,0-13.111,0-19.668
		c0-10.863-8.806-19.668-19.668-19.668c-4.213,0-8.427,0-12.641,0c-2.107,0-4.214,0-6.321,0c-0.138,0-0.276,0-0.414,0
		c-0.069,0-0.138,0-0.208,0c-0.03,0-0.085-0.04-0.085,0.016c0,0.031,0,0.062,0,0.093c0.001,0.251,0.007,0.503,0.019,0.753
		c0.022,0.513,0.064,1.026,0.127,1.536c0.131,1.067,0.347,2.106,0.648,3.137c2.457,8.378,10.143,14.133,18.873,14.133
		c-4.213,0-8.427,0-12.64,0c-2.108,0-4.215,0-6.322,0c-0.138,0-0.276,0-0.414,0c-0.07,0-0.139,0-0.208,0
		c-0.03,0-0.085-0.04-0.085,0.017c0,0.031,0,0.062,0,0.094c0.001,0.25,0.007,0.501,0.019,0.753c0.022,0.514,0.064,1.025,0.127,1.536
		c0.131,1.066,0.347,2.105,0.648,3.137c2.457,8.377,10.143,14.133,18.873,14.133c-4.213,0-8.427,0-12.64,0c-2.108,0-4.215,0-6.321,0
		c-0.139,0-0.277,0-0.414,0c-0.069,0-0.139,0-0.208,0c-0.03,0-0.085-0.041-0.085,0.017c0,0.03,0,0.062,0,0.094
		c0.002,0.25,0.007,0.501,0.019,0.753c0.023,0.514,0.064,1.024,0.127,1.535c0.131,1.067,0.347,2.105,0.648,3.137
		c2.457,8.378,10.144,14.133,18.874,14.133C37.38,80.386,46.187,71.58,46.187,60.717z"/>
	<g display="none">
		
			<polyline display="inline" fill="none" stroke="#FFFFFF" stroke-width="5" stroke-linecap="round" stroke-linejoin="round" points="
			17.551,51.017 17.551,18.646 49.921,18.646 		"/>
		
			<line display="inline" fill="none" stroke="#FFFFFF" stroke-width="5" stroke-linecap="round" stroke-linejoin="round" x1="49.921" y1="51.017" x2="49.921" y2="83.387"/>
		
			<line display="inline" fill="none" stroke="#FFFFFF" stroke-width="5" stroke-linecap="round" stroke-linejoin="round" x1="17.551" y1="51.017" x2="82.291" y2="51.017"/>
		<path display="inline" fill="none" stroke="#FFFFFF" stroke-width="5" stroke-linecap="round" stroke-linejoin="round" d="
			M17.551,51.017c0,13.093,7.888,24.895,19.983,29.905c12.095,5.009,26.018,2.239,35.277-7.017
			c9.256-9.259,12.026-23.181,7.017-35.276c-5.011-12.096-16.814-19.983-29.906-19.983"/>
	</g>
</g>
</svg>
