<?xml version="1.0" encoding="utf-8"?>
<!-- Generator: Adobe Illustrator 16.0.0, SVG Export Plug-In . SVG Version: 6.00 Build 0)  -->
<!DOCTYPE svg PUBLIC "-//W3C//DTD SVG 1.1//EN" "http://www.w3.org/Graphics/SVG/1.1/DTD/svg11.dtd">
<svg version="1.1" id="Default" xmlns="http://www.w3.org/2000/svg" xmlns:xlink="http://www.w3.org/1999/xlink" x="0px" y="0px"
	 width="100px" height="100px" viewBox="0 0 100 100" enable-background="new 0 0 100 100" xml:space="preserve">
<path display="none" fill="none" stroke="#E20000" stroke-width="5" stroke-linecap="round" stroke-linejoin="round" d="
	M71.576,18.661c-7.192,0-14.385,0-21.576,0c0,7.192,0,14.383,0,21.575s0,14.383,0,21.575c0,7.192,0,14.383,0,21.575
	c7.191,0,14.384,0,21.576,0c11.915,0,21.574-9.659,21.574-21.575c0-7.191,0-14.383,0-21.575
	C93.15,28.32,83.491,18.661,71.576,18.661z"/>
<path display="none" fill="none" stroke="#DB0000" stroke-width="5" stroke-linecap="round" stroke-linejoin="round" d="M50,61.811
	c0-7.191,0-14.383,0-21.575c0-11.916-9.66-21.575-21.575-21.575c-4.622,0-9.244,0-13.866,0c-2.312,0-4.623,0-6.934,0
	c-0.152,0-0.303,0-0.454,0c-0.076,0-0.152,0-0.228,0c-0.033,0-0.094-0.044-0.094,0.018c0,0.034,0,0.068,0,0.102
	c0.002,0.276,0.008,0.552,0.021,0.827c0.025,0.563,0.071,1.125,0.14,1.685c0.144,1.171,0.38,2.31,0.711,3.441
	c2.695,9.19,11.126,15.503,20.703,15.503c-4.622,0-9.244,0-13.866,0c-2.312,0-4.623,0-6.934,0c-0.152,0-0.303,0-0.454,0
	c-0.076,0-0.152,0-0.228,0c-0.033,0-0.094-0.044-0.094,0.018c0,0.034,0,0.068,0,0.103c0.002,0.275,0.008,0.55,0.021,0.826
	c0.025,0.563,0.071,1.124,0.14,1.684c0.144,1.17,0.38,2.31,0.711,3.441c2.695,9.19,11.126,15.503,20.703,15.503
	c-4.622,0-9.244,0-13.866,0c-2.312,0-4.623,0-6.934,0c-0.152,0-0.303,0-0.454,0c-0.076,0-0.152,0-0.228,0
	c-0.033,0-0.094-0.045-0.094,0.018c0,0.034,0,0.068,0,0.104c0.002,0.274,0.008,0.549,0.021,0.825
	c0.025,0.563,0.071,1.124,0.14,1.685c0.144,1.171,0.38,2.31,0.711,3.44c2.695,9.19,11.126,15.503,20.703,15.503
	C40.34,83.386,50,73.727,50,61.811z"/>
<g>
	<polyline fill="none" stroke="#FFFFFF" stroke-width="5" stroke-linecap="round" stroke-linejoin="round" points="17.551,51.017 
		17.551,18.646 49.921,18.646 	"/>
	
		<line fill="none" stroke="#FFFFFF" stroke-width="5" stroke-linecap="round" stroke-linejoin="round" x1="49.921" y1="51.017" x2="49.921" y2="83.387"/>
	
		<line fill="none" stroke="#FFFFFF" stroke-width="5" stroke-linecap="round" stroke-linejoin="round" x1="17.551" y1="51.017" x2="82.291" y2="51.017"/>
	<path fill="none" stroke="#FFFFFF" stroke-width="5" stroke-linecap="round" stroke-linejoin="round" d="M17.551,51.017
		c0,13.093,7.888,24.895,19.983,29.905c12.095,5.009,26.018,2.239,35.277-7.017c9.256-9.259,12.026-23.181,7.017-35.276
		c-5.011-12.096-16.814-19.983-29.906-19.983"/>
</g>
</svg>
